# xmcd
#
# Track frame offsets:
#	150
#	20556
#	40065
#	67388
#	94796
#	119937
#	143841
#	165233
#	188168
#	212775
#	232079
#	248080
#	265277
#	279681
#	293409
#	309288
#
# Disc length: 4476 seconds
#
# Revision: 0
# Processed by: cddbd v1.5.1PL0 Copyright (c) Steve Scherf et al.
# Submitted via: dBpowerAMP V4.0
#
DISCID=f1117a10
DTITLE=Dadah de Fort-Dauphin - Kilimity
DYEAR=2004
DGENRE=Other
TTITLE0=kilimity
TTITLE1=tema
TTITLE2=vamba
TTITLE3=sika lelahy tia tegna
TTITLE4=olo ratsy
TTITLE5=andao isika
TTITLE6=ampela mihamin-dahy
TTITLE7=koto
TTITLE8=benesy
TTITLE9=malahelo gny zaza
TTITLE10=zanak'anosy
TTITLE11=midelira
TTITLE12=napapa
TTITLE13=pepela
TTITLE14=kala
TTITLE15=manegny
EXTD=pour info bricets@yahoo.fr
EXTT0=
EXTT1=
EXTT2=
EXTT3=
EXTT4=
EXTT5=
EXTT6=
EXTT7=
EXTT8=
EXTT9=
EXTT10=
EXTT11=
EXTT12=
EXTT13=
EXTT14=
EXTT15=
PLAYORDER=
